<svg width="40" height="40" viewBox="0 0 40 40" fill="none" xmlns="http://www.w3.org/2000/svg">
<mask id="mask0_1_51" style="mask-type:luminance" maskUnits="userSpaceOnUse" x="2" y="2" width="36" height="36">
<path d="M36.6666 23.3333H23.3333V36.6666H36.6666V23.3333ZM10.8333 3.33325L18.3333 16.6666H3.33331L10.8333 3.33325ZM30 16.6666C31.7681 16.6666 33.4638 15.9642 34.714 14.714C35.9643 13.4637 36.6666 11.768 36.6666 9.99992C36.6666 8.23181 35.9643 6.53612 34.714 5.28587C33.4638 4.03563 31.7681 3.33325 30 3.33325C28.2319 3.33325 26.5362 4.03563 25.2859 5.28587C24.0357 6.53612 23.3333 8.23181 23.3333 9.99992C23.3333 11.768 24.0357 13.4637 25.2859 14.714C26.5362 15.9642 28.2319 16.6666 30 16.6666Z" fill="white" stroke="white" stroke-width="1.5" stroke-linejoin="round"/>
<path d="M3.33331 23.3333L16.6666 36.6666M16.6666 23.3333L3.33331 36.6666" stroke="white" stroke-width="1.5" stroke-linecap="round" stroke-linejoin="round"/>
</mask>
<g mask="url(#mask0_1_51)">
<path d="M0 0H40V40H0V0Z" fill="black"/>
</g>
</svg>