<svg width="589" height="670" viewBox="0 0 589 670" fill="none" xmlns="http://www.w3.org/2000/svg">
<g filter="url(#filter0_f_1_100)">
<path d="M294.38 41.2197L548.912 188.207V482.183L294.38 629.17L39.8475 482.183V188.207L294.38 41.2197Z" stroke="url(#paint0_linear_1_100)" stroke-width="11.5"/>
</g>
<g opacity="0.25" filter="url(#filter1_f_1_100)">
<path d="M307.489 41.2197L562.021 188.207V482.183L307.489 629.17L52.9565 482.183V188.207L307.489 41.2197Z" stroke="url(#paint1_linear_1_100)" stroke-width="11.5"/>
</g>
<g opacity="0.25" filter="url(#filter2_f_1_100)">
<path d="M281.271 41.2197L535.803 188.207V482.183L281.271 629.17L26.7386 482.183V188.207L281.271 41.2197Z" stroke="url(#paint2_linear_1_100)" stroke-width="11.5"/>
</g>
<path d="M294.38 41.2197L548.912 188.207V482.183L294.38 629.17L39.8475 482.183V188.207L294.38 41.2197Z" stroke="url(#paint3_linear_1_100)" stroke-width="11.5"/>
<defs>
<filter id="filter0_f_1_100" x="0.0975494" y="0.579834" width="588.564" height="669.23" filterUnits="userSpaceOnUse" color-interpolation-filters="sRGB">
<feFlood flood-opacity="0" result="BackgroundImageFix"/>
<feBlend mode="normal" in="SourceGraphic" in2="BackgroundImageFix" result="shape"/>
<feGaussianBlur stdDeviation="17" result="effect1_foregroundBlur_1_100"/>
</filter>
<filter id="filter1_f_1_100" x="27.2065" y="14.5798" width="560.564" height="641.23" filterUnits="userSpaceOnUse" color-interpolation-filters="sRGB">
<feFlood flood-opacity="0" result="BackgroundImageFix"/>
<feBlend mode="normal" in="SourceGraphic" in2="BackgroundImageFix" result="shape"/>
<feGaussianBlur stdDeviation="10" result="effect1_foregroundBlur_1_100"/>
</filter>
<filter id="filter2_f_1_100" x="0.988586" y="14.5798" width="560.564" height="641.23" filterUnits="userSpaceOnUse" color-interpolation-filters="sRGB">
<feFlood flood-opacity="0" result="BackgroundImageFix"/>
<feBlend mode="normal" in="SourceGraphic" in2="BackgroundImageFix" result="shape"/>
<feGaussianBlur stdDeviation="10" result="effect1_foregroundBlur_1_100"/>
</filter>
<linearGradient id="paint0_linear_1_100" x1="25493.1" y1="41.2197" x2="25493.1" y2="58836.3" gradientUnits="userSpaceOnUse">
<stop stop-color="#3040D3"/>
<stop offset="1"/>
</linearGradient>
<linearGradient id="paint1_linear_1_100" x1="25506.2" y1="41.2197" x2="25506.2" y2="58836.3" gradientUnits="userSpaceOnUse">
<stop stop-color="#3040D3"/>
<stop offset="1"/>
</linearGradient>
<linearGradient id="paint2_linear_1_100" x1="25480" y1="41.2197" x2="25480" y2="58836.3" gradientUnits="userSpaceOnUse">
<stop stop-color="#3040D3"/>
<stop offset="1"/>
</linearGradient>
<linearGradient id="paint3_linear_1_100" x1="25493.1" y1="41.2197" x2="25493.1" y2="58836.3" gradientUnits="userSpaceOnUse">
<stop stop-color="#3040D3"/>
<stop offset="1"/>
</linearGradient>
</defs>
</svg>
